<svg height="512" viewBox="0 0 64 64" width="512" xmlns="http://www.w3.org/2000/svg"><g id="Substitute-2" data-name="Substitute"><path d="m28 16v6h-5v12h-16v-12h-5v-6h10a3 3 0 0 0 6 0z" fill="#ed1c24"/><path d="m7 37h16v12h-16z" fill="#ffde17"/><path d="m62 16v6h-5v12h-16v-12h-5v-6h10a3 3 0 0 0 6 0z" fill="#1e81ce"/><path d="m41 37h16v12h-16z" fill="#e0e0e2"/><path d="m32 35v-3h-4v-4h4v-3l5 5z" fill="#91cc04"/><path d="m33 38v3h4v4h-4v3l-5-5z" fill="#ebfec0"/><path d="m29 22v-6a1 1 0 0 0 -1-1h-10a1 1 0 0 0 -1 1 2 2 0 0 1 -4 0 1 1 0 0 0 -1-1h-10a1 1 0 0 0 -1 1v6a1 1 0 0 0 1 1h4v11a1 1 0 0 0 1 1h16a1 1 0 0 0 1-1v-11h4a1 1 0 0 0 1-1zm-2-1h-4a1 1 0 0 0 -1 1v11h-14v-11a1 1 0 0 0 -1-1h-4v-4h8.126a4 4 0 0 0 7.748 0h8.126z"/><path d="m23 36h-16a1 1 0 0 0 -1 1v12a1 1 0 0 0 1 1h16a1 1 0 0 0 1-1v-12a1 1 0 0 0 -1-1zm-1 12h-6v-4a1 1 0 0 0 -2 0v4h-6v-10h14z"/><path d="m16 23h-6a1 1 0 0 0 0 2h6a1 1 0 0 0 0-2z"/><path d="m18 24a1 1 0 0 0 1 1h1a1 1 0 0 0 0-2h-1a1 1 0 0 0 -1 1z"/><path d="m62 15h-10a1 1 0 0 0 -1 1 2 2 0 0 1 -4 0 1 1 0 0 0 -1-1h-10a1 1 0 0 0 -1 1v6a1 1 0 0 0 1 1h4v11a1 1 0 0 0 1 1h16a1 1 0 0 0 1-1v-11h4a1 1 0 0 0 1-1v-6a1 1 0 0 0 -1-1zm-1 6h-4a1 1 0 0 0 -1 1v11h-14v-11a1 1 0 0 0 -1-1h-4v-4h8.126a4 4 0 0 0 7.748 0h8.126z"/><path d="m57 36h-16a1 1 0 0 0 -1 1v12a1 1 0 0 0 1 1h16a1 1 0 0 0 1-1v-12a1 1 0 0 0 -1-1zm-1 12h-6v-4a1 1 0 0 0 -2 0v4h-6v-10h14z"/><path d="m50 23h-6a1 1 0 0 0 0 2h6a1 1 0 0 0 0-2z"/><path d="m52 24a1 1 0 0 0 1 1h1a1 1 0 0 0 0-2h-1a1 1 0 0 0 -1 1z"/><path d="m10 47h2a1 1 0 0 0 0-2h-2a1 1 0 0 0 0 2z"/><path d="m44 47h2a1 1 0 0 0 0-2h-2a1 1 0 0 0 0 2z"/><path d="m32.707 24.293a1 1 0 0 0 -1.707.707v2h-3a1 1 0 0 0 -1 1v4a1 1 0 0 0 1 1h3v2a1 1 0 0 0 1.707.707l5-5a1 1 0 0 0 0-1.414zm.293 8.293v-.586a1 1 0 0 0 -1-1h-3v-2h3a1 1 0 0 0 1-1v-.586l2.586 2.586z"/><path d="m37 40h-3v-2a1 1 0 0 0 -1.707-.707l-5 5a1 1 0 0 0 0 1.414l5 5a1 1 0 0 0 1.707-.707v-2h3a1 1 0 0 0 1-1v-4a1 1 0 0 0 -1-1zm-1 4h-3a1 1 0 0 0 -1 1v.586l-2.586-2.586 2.586-2.586v.586a1 1 0 0 0 1 1h3z"/></g></svg>