<svg xmlns="http://www.w3.org/2000/svg" xmlns:xlink="http://www.w3.org/1999/xlink" id="Capa_1" x="0" y="0" enable-background="new 0 0 512.001 512.001" version="1.1" viewBox="0 0 512.001 512.001" xml:space="preserve"><circle cx="34" cy="136.311" r="24" fill="#FF5D5D"/><circle cx="34" cy="375.691" r="24" fill="#A0E557"/><polyline fill="#FF5D5D" points="427 406.801 427 286.801 502 346.801"/><g><polygon fill="#EDF2FA" points="276.857 258.212 341.356 322.816 427 322.816 427 370.816 321.473 370.816 242.967 292.204"/><polygon fill="#EDF2FA" points="70.5 184.316 135.084 184.316 202.924 252.262 237.868 219.324 154.967 136.316 58 136.316"/></g><polygon fill="#D8D8E4" points="57.894 375.702 154.962 375.702 341.356 189.202 427 189.202 427 141.202 321.473 141.202 135.079 327.702 70.5 327.702"/><path fill="#62CD4D" d="M502,165.202l-75,60v-120L502,165.202z"/><path d="M63.43,334.769c1.86,1.87,4.44,2.93,7.07,2.93s5.21-1.06,7.07-2.93c1.86-1.86,2.93-4.44,2.93-7.07s-1.07-5.21-2.93-7.07	c-1.86-1.86-4.44-2.93-7.07-2.93s-5.21,1.07-7.07,2.93s-2.93,4.44-2.93,7.07C60.5,330.339,61.57,332.909,63.43,334.769z"/><path d="M508.247,338.992l-75-60c-3.002-2.403-7.115-2.87-10.579-1.205S417,282.956,417,286.8v26.016h-71.497l-56.746-56.839	l56.743-56.775H417v26c0,3.844,2.204,7.348,5.668,9.013c1.378,0.662,2.858,0.987,4.331,0.987c2.229,0,4.44-0.745,6.249-2.191l75-60	c2.372-1.897,3.753-4.771,3.753-7.809c0-3.038-1.381-5.911-3.753-7.809l-75-60c-3.002-2.402-7.115-2.871-10.579-1.205	c-3.464,1.666-5.668,5.169-5.668,9.013v26h-95.527c-2.653,0-5.198,1.054-7.073,2.931l-73.766,73.808l-78.592-78.692	c-1.876-1.878-4.421-2.934-7.076-2.934h-88.47c-4.281-13.882-17.229-24-32.497-24c-18.748,0-34,15.252-34,34s15.252,34,34,34	c15.269,0,28.217-10.118,32.497-24h84.323l75.675,75.771l-19.794,19.805l-64.541-64.639c-1.876-1.879-4.422-2.935-7.077-2.935H110	c-5.523,0-10,4.477-10,10s4.477,10,10,10h20.937l61.626,61.723l-61.628,61.663H110c-5.523,0-10,4.477-10,10s4.477,10,10,10h25.079	c2.653,0,5.198-1.054,7.073-2.931l183.464-183.569H417v28h-75.644c-2.653,0-5.198,1.054-7.073,2.931L150.818,365.702H66.501	C62.224,351.814,49.273,341.69,34,341.69c-18.748,0-34,15.252-34,34s15.252,34,34,34c15.264,0,28.209-10.112,32.494-23.987h88.468	c2.653,0,5.198-1.054,7.073-2.931l78.653-78.698l73.709,73.809c1.875,1.878,4.421,2.934,7.076,2.934H417v25.984	c0,3.844,2.204,7.348,5.668,9.013c1.378,0.662,2.858,0.987,4.331,0.987c2.229,0,4.44-0.745,6.249-2.191l75-60	c2.372-1.897,3.753-4.771,3.753-7.809S510.619,340.889,508.247,338.992z M34,150.317c-7.72,0-14-6.28-14-14s6.28-14,14-14	s14,6.28,14,14S41.72,150.317,34,150.317z M437,126.008l48.992,39.193L437,204.396V126.008z M34,389.69c-7.72,0-14-6.28-14-14	s6.28-14,14-14c7.374,0,13.421,5.735,13.948,12.977c-0.035,0.341-0.054,0.686-0.054,1.036c0,0.348,0.018,0.691,0.053,1.029	C47.411,383.965,41.368,389.69,34,389.69z M325.619,360.817l-70.793-70.889l19.793-19.804l59.66,59.759	c1.875,1.879,4.422,2.935,7.077,2.935H417v28L325.619,360.817L325.619,360.817z M437,385.994v-78.388l48.992,39.194L437,385.994z"/><path d="M70.5,194.319c2.63,0,5.21-1.07,7.07-2.93s2.93-4.44,2.93-7.07s-1.07-5.21-2.93-7.07s-4.44-2.93-7.07-2.93	s-5.21,1.07-7.07,2.93c-1.86,1.86-2.93,4.43-2.93,7.07c0,2.63,1.07,5.21,2.93,7.07S67.87,194.319,70.5,194.319z"/></svg>