<svg id="Capa_1" enable-background="new 0 0 528 528" height="512" viewBox="0 0 528 528" width="512" xmlns="http://www.w3.org/2000/svg"><path d="m264 528c-145.567 0-264-118.433-264-264s118.433-264 264-264 264 118.433 264 264-118.433 264-264 264zm0-495c-127.375 0-231 103.625-231 231s103.625 231 231 231 231-103.625 231-231-103.625-231-231-231z"/><path d="m264 363c-54.592 0-99-44.408-99-99s44.408-99 99-99 99 44.408 99 99-44.408 99-99 99zm0-165c-36.4 0-66 29.6-66 66s29.6 66 66 66 66-29.6 66-66-29.6-66-66-66z"/><path d="m264 297c-18.192 0-33-14.808-33-33s14.808-33 33-33 33 14.808 33 33-14.808 33-33 33z"/><path d="m136.721 159.006-25.459-21.012c37.786-45.745 93.457-71.994 152.738-71.994v33c-49.403 0-95.794 21.866-127.279 60.006z"/><path d="m264 461.998v-33c49.403 0 95.793-21.866 127.279-60.006l25.459 21.012c-37.786 45.746-93.458 71.994-152.738 71.994z"/></svg>