<svg id="Layer_1" enable-background="new 0 0 256 256" height="512" viewBox="0 0 256 256" width="512" xmlns="http://www.w3.org/2000/svg"><path d="m110.276 118.23 16.183-72.117c.354-1.579.948-2.369 1.542-2.369-1.637 0-3.275.79-4.252 2.369l-44.62 72.117c-2.061 3.331.335 7.631 4.252 7.631h28.437c-1.421 0-2.289-4.3-1.542-7.631z" fill="#89aadb"/><path d="m176.873 118.23-44.62-72.117c-.977-1.579-2.615-2.369-4.252-2.369.594 0 1.188.79 1.542 2.369l16.183 72.117c.747 3.331-.121 7.631-1.542 7.631h28.437c3.917 0 6.313-4.3 4.252-7.631z" fill="#4b67b0"/><path d="m145.726 118.23-16.183-72.117c-.354-1.579-.948-2.369-1.542-2.369s-1.188.79-1.542 2.369l-16.183 72.117c-.747 3.331.121 7.631 1.542 7.631h32.366c1.42 0 2.289-4.3 1.542-7.631z" fill="#6287c5"/><path d="m56.681 204.85 16.183-72.117c.354-1.579.948-2.369 1.542-2.369-1.637 0-3.275.79-4.252 2.369l-44.62 72.117c-2.061 3.331.335 7.631 4.252 7.631h28.437c-1.421 0-2.29-4.3-1.542-7.631z" fill="#89aadb"/><path d="m123.278 204.85-44.62-72.117c-.977-1.579-2.615-2.369-4.252-2.369.594 0 1.188.79 1.542 2.369l16.183 72.117c.747 3.331-.121 7.631-1.542 7.631h28.437c3.917 0 6.313-4.3 4.252-7.631z" fill="#4b67b0"/><path d="m92.131 204.85-16.183-72.117c-.354-1.579-.948-2.369-1.542-2.369s-1.188.79-1.542 2.369l-16.183 72.117c-.747 3.331.121 7.631 1.542 7.631h32.366c1.42 0 2.289-4.3 1.542-7.631z" fill="#6287c5"/><path d="m163.869 204.85 16.183-72.117c.354-1.579.948-2.369 1.542-2.369-1.637 0-3.275.79-4.252 2.369l-44.62 72.117c-2.061 3.331.335 7.631 4.252 7.631h28.437c-1.42 0-2.289-4.3-1.542-7.631z" fill="#89aadb"/><path d="m230.466 204.85-44.62-72.117c-.977-1.579-2.615-2.369-4.252-2.369.594 0 1.188.79 1.542 2.369l16.183 72.117c.747 3.331-.121 7.631-1.542 7.631h28.437c3.917 0 6.313-4.3 4.252-7.631z" fill="#4b67b0"/><path d="m199.319 204.85-16.183-72.117c-.354-1.579-.948-2.369-1.542-2.369s-1.188.79-1.542 2.369l-16.183 72.117c-.747 3.331.121 7.631 1.542 7.631h32.366c1.421 0 2.29-4.3 1.542-7.631z" fill="#6287c5"/><path d="m145.726 133.492-16.183 72.117c-.354 1.579-.948 2.369-1.542 2.369 1.637 0 3.275-.79 4.252-2.369l44.62-72.117c2.061-3.331-.335-7.631-4.252-7.631h-28.437c1.42 0 2.289 4.3 1.542 7.631z" fill="#4b67b0"/><path d="m79.129 133.492 44.62 72.117c.977 1.579 2.615 2.369 4.252 2.369-.594 0-1.188-.79-1.542-2.369l-16.183-72.117c-.747-3.331.121-7.631 1.542-7.631h-28.437c-3.917 0-6.313 4.3-4.252 7.631z" fill="#89aadb"/><path d="m110.276 133.492 16.183 72.117c.354 1.579.948 2.369 1.542 2.369s1.188-.79 1.542-2.369l16.183-72.117c.747-3.331-.121-7.631-1.542-7.631h-32.366c-1.421 0-2.289 4.3-1.542 7.631z" fill="#6287c5"/><g fill="#1c2d6b"><path d="m172.621 128.861h-89.24c-2.943 0-5.556-1.535-6.988-4.106-1.433-2.571-1.363-5.601.185-8.104l44.62-72.117c1.469-2.374 4.012-3.791 6.803-3.791s5.334 1.417 6.803 3.791l44.62 72.117c1.548 2.503 1.618 5.533.185 8.104-1.433 2.572-4.045 4.106-6.988 4.106zm-44.62-82.117c-.335 0-1.171.093-1.701.948l-44.62 72.117c-.558.902-.218 1.717-.046 2.026s.687 1.026 1.747 1.026h89.24c1.061 0 1.575-.718 1.747-1.026.172-.309.512-1.124-.046-2.026l-44.62-72.116c-.53-.856-1.366-.949-1.701-.949zm-4.252-.63h.01z"/><path d="m128.001 210.979c-2.792 0-5.334-1.417-6.803-3.791l-44.62-72.117c-1.548-2.503-1.618-5.532-.185-8.104 1.433-2.571 4.045-4.106 6.988-4.106h89.24c2.943 0 5.555 1.535 6.988 4.105 1.433 2.571 1.364 5.601-.185 8.104l-44.62 72.117c-1.469 2.374-4.012 3.792-6.803 3.792zm-44.62-82.118c-1.061 0-1.575.718-1.747 1.026s-.512 1.124.046 2.026l44.62 72.117c.529.855 1.366.948 1.701.948s1.171-.093 1.701-.948l44.62-72.117c.558-.902.218-1.717.046-2.026s-.686-1.026-1.747-1.026z"/><path d="m226.214 215.481h-89.24c-2.943 0-5.556-1.535-6.988-4.106-1.433-2.571-1.363-5.601.185-8.104l44.62-72.117c1.469-2.374 4.012-3.791 6.803-3.791s5.334 1.417 6.803 3.791l44.62 72.117c1.548 2.503 1.618 5.533.185 8.104-1.432 2.571-4.045 4.106-6.988 4.106zm-44.62-82.117c-.335 0-1.171.093-1.701.948l-44.62 72.117c-.558.902-.218 1.717-.046 2.026s.687 1.026 1.747 1.026h89.24c1.061 0 1.575-.718 1.747-1.026.172-.309.512-1.124-.046-2.026l-44.62-72.116c-.529-.856-1.366-.949-1.701-.949zm-4.252-.631h.01z"/><path d="m119.026 215.481h-89.24c-2.943 0-5.555-1.535-6.988-4.105-1.433-2.571-1.364-5.601.185-8.104l44.62-72.117c1.469-2.374 4.012-3.791 6.803-3.791s5.334 1.417 6.803 3.791l44.62 72.117c1.548 2.503 1.618 5.532.185 8.104-1.432 2.57-4.045 4.105-6.988 4.105zm-44.62-82.117c-.335 0-1.171.093-1.701.948l-44.62 72.117c-.558.902-.218 1.717-.046 2.026s.686 1.026 1.747 1.026h89.24c1.061 0 1.575-.718 1.747-1.026s.512-1.124-.046-2.026l-44.62-72.117c-.53-.855-1.366-.948-1.701-.948zm-4.252-.631h.01z"/></g></svg>